<?xml version="1.0" ?><!DOCTYPE svg  PUBLIC '-//W3C//DTD SVG 1.1//EN'  'http://www.w3.org/Graphics/SVG/1.1/DTD/svg11.dtd'><svg height="512px" style="enable-background:new 0 0 512 512;" version="1.1" viewBox="0 0 512 512" width="512px" xml:space="preserve" xmlns="http://www.w3.org/2000/svg" xmlns:xlink="http://www.w3.org/1999/xlink"><g id="_x34_0_x2C__Moon_x2C__Night_x2C__star_x2C__weather_x2C__space_x2C_"><g><path d="M365.405,303.594c-3.527-3.504-8.398-5.701-13.754-5.701    c-5.373,0-10.247,2.197-13.754,5.701c-3.523,3.545-5.699,8.398-5.699,13.754c0,5.393,2.176,10.246,5.699,13.752    c3.507,3.545,8.381,5.701,13.754,5.701c5.355,0,10.227-2.156,13.754-5.701c3.506-3.506,5.699-8.359,5.699-13.752    C371.104,311.992,368.911,307.139,365.405,303.594 M393.565,165.801c-1.812-1.811-4.355-2.929-7.128-2.929    s-5.278,1.118-7.089,2.929c-1.829,1.809-2.966,4.352-2.966,7.126s1.137,5.278,2.966,7.087c1.811,1.811,4.316,2.968,7.089,2.968    s5.316-1.157,7.128-2.968c1.812-1.809,2.944-4.313,2.944-7.087S395.377,167.609,393.565,165.801z M163.353,28.969    c-1.811-1.811-4.352-2.967-7.124-2.967c-2.776,0-5.278,1.156-7.089,2.967c-1.829,1.809-2.965,4.352-2.965,7.126    s1.137,5.278,2.965,7.087c1.811,1.812,4.313,2.968,7.089,2.968c2.772,0,5.313-1.156,7.124-2.968    c1.811-1.809,2.948-4.313,2.948-7.087S165.164,30.777,163.353,28.969z M397.956,86.482c-2.292-2.272-3.545-5.047-4.913-9.361    c-1.387,4.314-2.637,7.089-4.932,9.361c-2.291,2.311-5.025,3.545-9.377,4.931c4.352,1.386,7.086,2.62,9.377,4.931    c2.295,2.312,3.545,5.047,4.914,9.361c1.309-4.084,2.502-6.779,4.621-9.016l0.31-0.346c2.313-2.311,5.046-3.545,9.381-4.931    C403.002,90.027,400.269,88.793,397.956,86.482z M296.756,196.733v-0.077l-0.039,0.115c-3.695,12.904-5.545,19.34-10.282,24.077    c-4.738,4.737-11.213,6.626-24.117,10.284l-0.057,0.039h0.095c12.887,3.699,19.341,5.549,24.079,10.287    c4.737,4.737,6.604,11.209,10.282,24.115l0.039,0.077l0.021-0.077c3.679-12.906,5.527-19.378,10.266-24.115    c4.738-4.738,11.21-6.588,24.118-10.287h0.073l-0.095-0.039c-12.887-3.697-19.358-5.547-24.097-10.284    S300.455,209.638,296.756,196.733z M249.258,53.236l-1.734-6.01l-1.712,6.01c-4.991,17.413-7.475,26.118-13.656,32.283    c-6.205,6.201-14.908,8.705-32.284,13.674l-6.008,1.734l6.008,1.695c17.393,4.969,26.118,7.473,32.284,13.676    c6.202,6.201,8.704,14.908,13.656,32.282l1.733,6.009l1.713-6.047c4.969-17.374,7.475-26.081,13.637-32.244    c6.24-6.203,14.927-8.707,32.319-13.676l5.991-1.734l-6.029-1.695c-17.372-4.969-26.079-7.473-32.281-13.674    C256.733,79.318,254.228,70.611,249.258,53.236z M162.563,418.932c-1.944-1.733-2.116-4.739-0.382-6.703    c1.73-1.927,4.717-2.119,6.682-0.386c0.193,0.193,67.298,60.134,167.301,25.888c2.467-0.848,5.162,0.5,5.99,2.966    s-0.48,5.162-2.943,5.972C233.964,482.686,162.777,419.085,162.563,418.932z M397.205,437.229    c34.112-27.813,59.633-65.834,71.902-109.364c-18.376,16.218-39.408,29.508-62.329,39.14    c-26.967,11.286-56.552,17.526-87.562,17.526c-62.599,0-119.246-25.348-160.254-66.374    c-40.987-40.986-66.375-97.654-66.375-160.254c0-7.59,0.404-15.254,1.158-22.882l0.79-6.741    c-14.758,17.334-26.834,37.02-35.576,58.399c-10.363,25.311-16.066,53.046-16.066,82.169c0,59.979,24.311,114.258,63.603,153.55    c39.292,39.294,93.591,63.602,153.551,63.602C312.071,485.999,359.818,467.738,397.205,437.229z" style="fill-rule:evenodd;clip-rule:evenodd;"/></g></g><g id="Layer_1"/></svg>